<?xml version="1.0" encoding="utf-8"?><svg width="498" height="499" xmlns="http://www.w3.org/2000/svg"><g fill="none" fill-rule="evenodd"><path d="M224.726 497.089c-32.884-8.86-49.068-27.757-66.4-48-3.727-4.342-7.508-8.757-12.097-13.72-9.811-9.345-13.88-10.239-20.842-11.76-4.654-1.017-10.36-2.263-18.798-5.479-.003 0-.325-.137-.329-.137-26.157-11.582-49.685-27.722-62.507-48.397-11.075-17.87-14.191-38.805-4.4-62.688v-.028c3.277-7.91 6.274-13.89 9.274-19.144 3.082-5.414 5.89-9.647 8.99-14.383 4.027-6.165 6.318-10.175 7.41-12.939.552-1.397.668-1.98.58-2.253a33.138 33.138 0 0 1-.357-1.829c-.024-.435-3.003-.86-6.243-1.322h.027l-2.1-.294-.242-.055c-4.185-.784-8.596-2.315-13.713-5.9-4.633-3.247-9.958-8.309-16.441-16.333l.219.274c-5.325-5.993-10.945-13.11-15.661-21.952-4.754-8.914-8.48-19.414-9.873-31.986v-.137c-1.774-19.082.363-35.428 6.945-49.11 6.712-13.959 17.877-24.97 34.02-33.096l.791-.356c8.833-3.15 19.038-5.055 28.34-5.195 9.027-.14 17.462 1.425 23.5 5.147 4.633 2.856 8.589 6.02 12.476 9.134 2.554 2.044 5.071 4.061 7.53 5.798-.243-3.055-.828-6.23-2.167-9.562-5.429-8.983-9.47-19.555-10.107-29.449-.366-5.674.37-11.202 2.552-16.23 2.263-5.218 6.017-9.753 11.602-13.174 4.95-3.027 11.274-5.137 19.223-5.983 5.808-6.143 14.688-11.157 22.233-15.414a404.66 404.66 0 0 0 3.178-1.805c.017-.01.664-.322.682-.329 8-3.493 16.267-6.28 24.571-8.654 8.01-2.287 16.422-4.277 24.713-6.17 9.27-2.117 16.14-3.234 22.445-3.525 6.421-.301 12.264.247 19.384 1.449.03.003.897.209.928.219 9.397 2.955 18.14 6.123 26.298 9.346 7.866 3.106 15.63 6.462 23.054 9.784 17.291 7.733 29.733 16.23 40.757 23.757 3.404 2.325 6.661 4.548 10.76 7.157l.192.165c4.062 2.794 7.836 5.579 10.264 10.04 2.568 4.73 3.185 10.37.291 17.926-1.171 6.976-3.486 14.212-5.736 21.226-2.22 6.928-4.363 13.626-4.952 18.835-.113.987.53 2.343 1.568 3.778 1.024 1.414 2.363 2.76 3.843 3.945 2.544-1.788 5.856-4.069 9.743-5.887 7.657-4.024 12.671-6.678 17.561-8.973 4.89-2.287 9-3.89 14.477-5.62l-.357.137c15.309-5.79 30.88-9.349 46.291-6.294 15.658 3.103 30.634 12.846 44.137 33.62.09.14.857 1.828.901 1.993 4.99 18.431 5.223 34.565 1.209 50.78-3.935 15.895-11.914 31.586-23.47 49.484-.01.02-.475.637-.492.657-11.456 13.959-23.226 24.897-34.377 35.257a1244.31 1244.31 0 0 0-6.003 5.596l.054-.052c-.308.295.466-.154.425.298-.034.336-.603-.209-.377.12 0 .004.161.27.161.274 10.363 16.723 19.329 39.514 20.805 62.473 1.195 18.613-2.466 37.431-14.106 53.53-.02.025-.606.74-.627.764-17.233 17.922-42.472 19.226-63.455 20.305-7.867.4-15.083.774-20.26 1.962-19.781 4.922-33.655 21.812-47.377 38.521-6.189 7.538-12.36 15.041-19.127 21.664-.01.007-.48.425-.49.435-9.616 7.754-17.274 13.161-26.397 16.257-9.22 3.127-19.363 3.699-33.682 1.668-.023-.003-.821-.158-.842-.161" fill="#FFF"/><path d="M225.97 493.253c-38.7-10.428-53.559-36.12-76.271-60.637-17.672-16.907-19.648-10.342-42.726-19.137-46.37-20.53-83.843-55.267-64.11-103.393 6.428-15.51 11.627-23.213 17.894-32.809 8.722-13.352 10.103-17.832 8.897-21.472-.37-6.928-7.428-7.195-14.452-8.274-6.668-1.254-14.216-4.993-26.342-20.01-10.247-11.535-21.524-27.185-24.13-50.723-3.357-36.072 7.87-61.353 37.657-76.34 15.795-5.636 36.243-7 46.442-.715 10.551 6.504 19.914 17.034 30.04 20.394 1.124-.28-.294-1.952 1.104-1.952.11-6.692.527-13.716-3.083-22.264-13.24-21.613-17.743-53.12 20.744-55.603 5.417-7.116 17.256-13.229 25.804-18.133C178.87 15.445 195.812 11.3 212.1 7.582c17.764-4.055 26.326-4.277 39.668-2.02 18.48 5.815 34.822 12.633 49.223 19.078 22.787 10.189 37.298 21.97 51.26 30.85 6.77 4.66 12.503 9.126 7.877 20.561-2.12 13.74-9.706 30.072-11.031 41.778-.726 6.404 5.9 13.335 12.342 17.044 1.774-.5 7.107-5.308 13.298-8.144 15.654-8.222 20.624-10.92 31.33-14.3 28.848-10.915 58.225-13.515 83.205 24.917 9.465 34.949.948 60.904-21.668 95.945-13.343 16.257-27.404 28.61-40.302 40.726-1.626 1.565-2.52 7.117-.897 9.497 17.815 28.753 31.336 76.133 7.065 109.702-21.87 22.75-60.794 15.856-81.318 20.568-31.71 7.829-48.267 40.853-70.71 62.802-18.287 14.74-28.794 20.452-55.472 16.667" fill="#004E34"/><path d="M35.637 119.716c-2.25 2.483-1.976 6.613 3.555 7.23 24.157 2.67 32.685 29.588 27.527 61.407-11.907 25.924-11.657 20.215 7.041 34.757 5.572 4.548 8.829.798 6.11-5.34-.562-1.273-.394-5.078 1.613-11.571.702-2.267-2.134-5.226-1.993-8.644 1.918-6.617 7.469-2.867 9.055-6.737 2.589-1.294 3.643-7.482 5.41-9.49 4.36-1.318 4.795 1.545 4.795-7.26-3.024-22.164-14.97-50.452-39.815-57.01-8.062-1.397-16.623-1.36-23.298 2.658zm-15.558 17.068c-6.949 21.415-5.055 48.716 6.62 70.699 5.376 10.356 14.92 17.544 18.551 19.065 3.736 2.801 10.072 7.99 17.096 10.565 5.736 2.103 9.887 3.565 12.959 4.918 18.959 4.164 3.13 29.407 1.589 34.945-10.873 8.603-20.586 27.887-24.702 39.428-6.856 19.212-1.428 40.767 15.945 57.459 17.558 16.918 42.818 32.49 70.466 33.065 5.928 1.017 14.448 11.986 21.476 20.319 19.459 25.36 26.4 48.904 61.428 57.36 13.164 3.068 30.298-.987 36.339-3.737 38.086-17.473 49.113-63.065 89.976-76.873 19.736-4.226 39.168-6.911 59.185-10.857 21.29-8.428 23.092-16.575 26.705-36.298 0-17.472-7.414-68.623-24.517-76.794.34 21.801 28.048 89.637-16.157 103.565 0-.846-1.528-.164-1.247-1.014 33.079-27.897 11.709-69.013 2.812-103.11-2.5-7.044-10.84-35.602-23.069-23.201 4.202 16.304 3.363 34.445-4.452 49.726-13.801 20.287-32.736 21.12-54.616 20.414.274.569.555 1.13.829 1.695 10.845 6.51 17.876 9.76 33.164 7.98 11.681-1.918 17.14-3.449 18.76-5.093-24.219 26.172-62.421 12.75-69.883 6.692-.706 1.411-1.648 3.1-.387 4.791 7.23 13.243 15.866 23.908 2.11 38.558-6.302 5.14-9.675 1.172-6.977-3.356 1.065-1.637 3.082-3.13 3.332-5.66 1.894-19.24-12.356-49.542-23.76-57.723-18.904-8.452-21.685-9.86-29.746-25.36h-1.946c-4.414 18.034-17.907 31.819-31.691 45.908-29.894 28.383-46.069 12.568-62.031 3.582-1.281-1.13-14.64-7.576-14.312-8.617-.832-1.342 13.209 3.89 20.853 3.46 15.527.194 34.692-4.264 35.921-7.401-4.678.63-11.305.143-20.681-1.466-19.295-3.757-38.175-16.89-41.757-42.23-10.5-9.393-15.035-22.024-9.452-29.304 1.435-1.117 9.815 6.061 18.349 13.592 12.414 10.925 19.065 14.524 27.548 18.627 6.397 2.102 20.459 6.702 31.527 9.465 15.34 2.737 39.853 1.634 35.161-15.76-7.226-9.582-23.907-14.373-12.51-25.924 13.623.845 15.387-1.14 23.425 16.61.835 0 .486.297 1.596.297 4.445-18.435 28.356-50.699 50.315-46.493-.278.842-.278 1.688-.278 2.815-16.654 7.555-25.332 22.517-30.856 32.97-2.918 14.585-4.85 28.273 5.284 34.66 6.08 4.243 11.113 4.243 15.422 2.134 18.904-12.682 31.027-33.51 49.654-47.319 15.325-11.16 25.39-13.99 44.61-9.346 2.225-5.013 1.92-5.507 7.756-11.599 1.117 0 2.226-1.476 3.617-1.195 6.308 7.91 20.948 47.839 21.071 49.544 1.394-4.226 4.134-7.582 6.915-10.681 40.866-23.106 72.86-67.466 66.188-115.935-1.695-13.904-11.942-29.575-31.503-32.356-12.96-.713-24.96.253-36.079 4.339-18.384 6.76-35.753 16.315-48.784 29.883-6.805 9.103-8.692 5.007-10.832 1.168-3.483-5.055-4.346-3.298-6.151-.346-1.185 4.586-.25 6.487-2.21 9.264-18.359 25.97-62.472 54.753-90.205 65.66-36.14 9.864-75.167 5.261-103.24-16.157-7.739 4.463-16.575 8.096-25.784 15.874-4.537 4.325-10.133 10.349-12.787 18.599-3.558 7.918-8.25 14.88-12.784 14.654-5.185-14.486 10.678-44.051 36.137-60.305-1.531-1.13-16.343-16.602-17.603-19.25-1.767-10.67 1.267-39.082.315-47.24-10.438-9.612-20.911-17.609-38.034-24.527-21.418-9.986-51.1 3.606-59.983 28.178z" fill="#F3B336"/><path d="M232.404 463.709c-15.85-1.798-23.883-5.863-36.976-16.952-20.291-18.88-29.743-46.778-47.812-62.274-6.006-5.024-7.61-4.295-12.208-1.795-3.024 3.065-9.165 7.038-12.2 2.151-3.94-18.11 10.532-26.332 25.398-27.342 3.373-.456 10.274 4.503 1.356 7.325-2.78.846-.678.264-3.459 1.394-4.89.894-7.428 4.37-1.524 4.883 5.319.394 11.483 6.668 17.514 14.624 15.921 25.102 35.343 38.616 71.88 38.133 7.096-14.53 2.966-24.654 5.867-29.058 4.137-6.291 4.03-7.962.78-8.627-6.475-6.784-13.006.408-20.688.257-2.294.747-9.085-3.171-13.767-7.199-9.065-4.88-12.383-11.246-9.164-18.654.537-6.938 5.787 8.843 18.202.822 10.007-3.664 34.174-8.096 56.736 4.445 5.949 2.244 7.25-2.503 10.575-5.013 1.11-.84 3.665-2.038 6.083.4-1.024 6.792-2.514 15.925-11.411 22.685-3.661 2-7.706 2-10.435 0-.833-1.404-1.668-4.034-2.5-5.445-7.333 3.202-14.49 6.452-16.922 11.963-1.92 7.955.161 15.205.021 31.856 24.767 21.527 66.545-22.175 88.493-38.278 6.038-7.558 16.654-7.537 18.045-9.233-2.223-1.404-4.446-2.818-6.672-4.226-5.537-4.298-3.048-7.787 1.39-8.04 11.847-1.908 28.82 9.712 23.223 18.87-3.082 2.814-7.784-1.117-9.595-.104-4.994 2.795-11.884 3.165-17.08 5.226-22.523 8.939-34.318 30.322-52.845 55.716-17.312 18.37-35.384 21.64-60.305 21.49" fill="#004E34"/><path d="M229.623 448.164c-7.965.27-16.513-2.448-20.387-6.732 2.37-11.805 14.976-11.864 23.87-12.148.02 4.51-.257 8.692.65 13.781 1.258 3.452 9.826 1.627 9.802-2.791.315-9.017-.572-10.202.26-11.61 8.6 3.559 12.576 5.562 17.01 8.045 3.641 2.695 5.261 9.22 2.11 10.746-13.342 2.254-21.342 3.096-33.315.71" fill="#FFF"/><path d="M210.757 352.853c-2.48 1.592-3.456-2.329-3.623-4.863-.103-4.51 3.8-7.124 8.637-7.332 7.61-.61 12.208.294 18.657 1.188 3.363.466 13 .068 20.017-.113 1.877-.051 9.966-3.158 14.079-2.74 5.431-.894 10.6 3.562 7.801 10.829-1.483 3.49-20.154-1.175-35.808-.483-13.472-.709-21.387 4.78-29.76 3.514" fill="#004E34"/><path d="M179.356 319.041c2.88-5.065 10.778-7.16 11.278-15.575 6.113.969 12.126 1.16 18.52 1.16-6.144 9.264-11.623 9.261-21.363 12.617-3.733 1.291-5.623 2.462-8.435 1.798M162.623 316.65c-21.116-1.438-29.589-26.314-28.352-30.462 3.667 2.309 11.065 4.836 15.726 7.124 2.431 11.342 7.695 18.284 12.626 23.339M313.853 315.723c-9.73-3.384-21.377-6.997-24.884-14.89 7.784-5.073 15.778-12.593 23.216-18.925 4.75 21.66 33.346 18.29 39.688 2.537 5.86-12.579-.668-21.585-9.558-27.548 5.87-3.188 16.49-7.524 18.483-3.36 10.77 15.223 8.586 38.446-3.442 50.96-10.5 8.924-23.75 15.065-43.503 11.226" fill="#FFF"/><path d="M74.336 312.298c2.28-18.147 13.74-49.98 17.931-49.134 6.1 0 6.38 3.26 4.514 7.747-2.223 5.336-9.603 21.486-11.4 27.97-2.71 3.612-10.141 17.023-11.045 13.417" fill="#004E34"/><path d="M170.408 309.243c-3.343-3.079-3.723-4.627-2.326-10.003 2.226 0 5.897 1.352 8.12 1.637 2.13 4.339.61 10.116-5.794 8.366M327.51 279.15c-2.044-3.914-.53-6.054.39-8.191 2.268-2.384 4.83-3.288 7.097-.932 2.28.6 3.667 4.46 1.208 7.432-1.479 2.438-5.589 1.62-8.695 1.692" fill="#FFF"/><path d="M411.055 245.73c-4.226-17.85-1.678-33.374-1.822-48.384.36-3.938-1.853-4.85-3.9.305-.994 2.257-2.905 3.572-3.651 6.11-2.024 4.66-3.822 6.64-3.066 1.215.744-9.86 4.206-17.866 4.726-23.106-2.866-3.863-8.958 1.794-13.931 4.23 10.6-26.997 32.777-46.805 48.798-54.7 7.36-5.582 28.089-8.506 30.671 13.723-.53 3.586-3.387 4.51-4.363-.61-1.075-10.023-12.421-5.03-18.517-.503-4.983 3.096-14.877 16.374-17.582 25.572-7.47 15.326-12.71 45.346-13.952 78.877-.404 2.846-2.415.116-3.411-2.73" fill="#004E34"/><path d="M245.466 213.432c-2.5-8.456-4.723-16.908-6.949-25.08-9.452 0-17.075-1.547-26.246-1.266-1.95 7.61-5.723 17.048-7.387 24.654-4.179-.031-8.233.284-10.182-.843 3.822-18.767 15.866-53.897 18.15-66.102 10.288-.562 19.353.373 28.723 1.006 4.449 19.165 10.74 43.569 14.904 66.045-1.39 1.555-9.065 1.586-11.013 1.586" fill="#FFF"/><path d="M216.243 176.373c1.596-7.027 3.819-15.678 5.973-21.86 3.616 0 5.983.309 9.876.309 1.809 4.082 3.781 15.366 5.028 22.551-5.613 0-15.113-.144-20.877-1" fill="#004E34"/><path d="M128.603 74.455c1.805-10.143 6.301-16.852 11.445-23.897 15.53-14.428 37.425-26.435 63.829-32.243-4.384 5.877-5.778 18.319 2.907 24.911 17.062 7.819 34.788 10.301 47.572-.147 13.264-10.84 4.058-21.579-3.373-26.524 17.925 5.486 50.818 17.373 67.23 27.216 11.092 8.284 31.174 24.904 20.766 34.537-32.643 21.77-77.8 38.387-99.928 40.216-37.633 8.28-107.537-13.497-110.448-44.069" fill="#F3B336"/><path d="M223.757 41.322c-4.22-1.202-12.418-4.918-12.418-10.747.452 3.952 27.593 11.812 28.298 9.528-3.332 2.373-10.048 2.065-15.88 1.219" fill="#F3B336"/><path d="M451.709 394.414c0 1.052-.062 1.124-.565 1.199l-.51.062c-.09.065-.09.325 0 .39.79-.017 1.373-.034 1.907-.034.507 0 1.065.017 1.791.034.086-.065.086-.325 0-.39l-.442-.062c-.51-.075-.575-.147-.575-1.199v-4.938c0-.291.034-.325.298-.325h.682c.832 0 .993.53 1.184 1.24.052.092.353.071.411-.025-.02-.643.062-1.548.172-1.931-.02-.038-.103-.079-.172-.079a.25.25 0 0 0-.143.034c-.103.233-.268.247-1.01.247h-4.165c-.856 0-.89-.048-.945-.24-.041-.034-.096-.04-.158-.04a.243.243 0 0 0-.15.057c-.083.439-.137 1.13-.374 1.904.065.144.278.165.415.103.335-.825.568-1.27 1.39-1.27h.692c.267 0 .267.054.267.325v4.938zm5.003-5.373c.446.1.692.247.692.887 0 .6-.034 1.504-.075 2.26-.069 1.062-.124 2.045-.178 2.59-.069.691-.106.746-.678.862l-.199.035c-.103.054-.103.342.044.39.45-.017.908-.034 1.264-.034.425 0 .911.017 1.322.034.093-.055.117-.312.028-.39l-.439-.069c-.452-.082-.514-.226-.514-.788 0-.67.007-1.787.021-2.52.007-.582.038-1.014.075-1.75h.028c.623 1.462 1.962 4.181 2.394 5.572.065.048.188.068.29.068.093 0 .165-.03.23-.072.74-1.9 1.63-3.77 2.459-5.568h.027v1.284l.021 2.911c0 .689 0 .781-.514.884l-.335.048c-.117.078-.103.335.034.39.534-.017 1.15-.034 1.657-.034.548 0 1.028.017 1.542.034.116-.048.116-.301.027-.39l-.363-.048c-.438-.065-.48-.322-.5-.84-.069-1.414-.09-2.62-.09-4.927 0-.596.22-.72.679-.812l.329-.051c.089-.113.089-.326-.035-.39-.404.016-.917.03-1.287.03-.336 0-.685.01-1.199-.03-.246.958-.486 1.482-1.037 2.643l-.566 1.233a15.31 15.31 0 0 1-.633 1.274 32.57 32.57 0 0 1-.6-1.144l-.743-1.579c-.49-1.055-.883-1.74-.883-2.428-.404.031-.726.031-1.096.031a31.57 31.57 0 0 1-1.411-.03c-.123.03-.123.297-.034.39l.246.044z" fill="#004E34"/></g></svg>
